#!OML:ASF C:\Vicon Data\Big\jianyuan-12\jianyuan\Session 1\Capture.male.ASF
:FULLY-SPECIFIED
:DEGREES
28
root -8.118367 17.009355 -21.958056 6.476469 -3.288451 8.830294
lowerback -11.851411 -3.445130 -6.905327 
upperback 1.819161 -3.535776 -0.243787 
thorax 9.047581 -2.048736 2.926404 
lowerneck -0.312801 -9.194664 -8.438680 
upperneck 8.561081 -12.749464 8.948905 
head 3.719754 -6.255952 3.537223 
rclavicle 0.000000 0.000000 
rhumerus -51.120265 -38.523225 -62.298288 
rradius 29.257081 
rwrist 53.436607 
rhand -24.643198 -1.733223 
rfingers 0.000000 
rthumb 1.856155 -31.704896 
lclavicle 0.000000 0.000000 
lhumerus -23.866614 25.577055 81.397251 
lradius 35.393639 
lwrist -40.473624 
lhand -11.434734 3.709053 
lfingers 0.000000 
lthumb 14.601716 33.175033 
rfemur -26.811869 -0.697119 17.504801 
rtibia 25.794005 
rfoot -16.781431 -12.133491 
rtoes -8.039793 
lfemur -1.114410 5.922112 -25.910447 
ltibia 40.988879 
lfoot -7.222454 5.888507 
ltoes -19.929474 
29
root -8.140567 17.009395 -21.870020 6.451172 -3.334175 8.605232
lowerback -11.831656 -3.416623 -6.703948 
upperback 1.791637 -3.537853 -0.171156 
thorax 8.996589 -2.040453 2.893415 
lowerneck -0.360119 -9.267091 -8.239104 
upperneck 8.627678 -12.839596 8.791483 
head 3.732801 -6.297331 3.450614 
rclavicle 0.000000 0.000000 
rhumerus -51.029626 -38.420220 -62.401096 
rradius 29.296739 
rwrist 53.241175 
rhand -24.799176 -1.643569 
rfingers 0.000000 
rthumb 1.705545 -31.616475 
lclavicle 0.000000 0.000000 
lhumerus -24.293534 25.862963 81.261473 
lradius 35.107493 
lwrist -40.902544 
lhand -11.577365 4.011756 
lfingers 0.000000 
lthumb 14.464261 33.487619 
rfemur -26.464765 -0.988762 17.910463 
rtibia 25.868271 
rfoot -16.942727 -11.678894 
rtoes -8.143811 
lfemur -1.918482 6.163549 -25.475148 
ltibia 42.550429 
lfoot -6.163482 6.423069 
ltoes -17.945257 
30
root -8.165944 17.008500 -21.782923 6.407310 -3.384606 8.518662
lowerback -11.790295 -3.433270 -6.610918 
upperback 1.748954 -3.578750 -0.170650 
thorax 8.923663 -2.052944 2.836957 
lowerneck -0.429907 -9.242961 -8.195360 
upperneck 8.733068 -12.816022 8.853067 
head 3.775048 -6.278437 3.458561 
rclavicle 0.000000 0.000000 
rhumerus -51.073352 -38.393663 -62.357074 
rradius 29.216258 
rwrist 53.917876 
rhand -25.043131 -1.860267 
rfingers 0.000000 
rthumb 1.469930 -31.834941 
lclavicle 0.000000 0.000000 
lhumerus -24.803079 26.006270 81.000135 
lradius 34.952630 
lwrist -40.948703 
lhand -11.261915 4.025111 
lfingers 0.000000 
lthumb 14.768126 33.478867 
rfemur -26.082552 -0.865529 18.075356 
rtibia 25.933107 
rfoot -17.266451 -11.562563 
rtoes -7.941138 
lfemur -2.683336 6.422922 -25.219856 
ltibia 43.991923 
lfoot -4.786508 6.865104 
ltoes -16.180290 
31
root -8.184261 17.012645 -21.699069 6.413207 -3.453424 8.332783
lowerback -11.768840 -3.420331 -6.321850 
upperback 1.712974 -3.609995 -0.146283 
thorax 8.855926 -2.052384 2.697464 
lowerneck -0.561240 -9.185339 -8.245054 
upperneck 8.776662 -12.748369 9.026343 
head 3.817969 -6.236225 3.514959 
rclavicle 0.000000 0.000000 
rhumerus -50.905293 -38.251667 -62.534735 
rradius 29.225311 
rwrist 53.962651 
rhand -25.006533 -1.783836 
rfingers 0.000000 
rthumb 1.505275 -31.758269 
lclavicle 0.000000 0.000000 
lhumerus -25.266399 26.295140 80.735163 
lradius 34.719423 
lwrist -41.221090 
lhand -11.097944 3.706793 
lfingers 0.000000 
lthumb 14.926149 33.148991 
rfemur -25.711916 -0.769690 18.333442 
rtibia 25.898891 
rfoot -17.569208 -11.498642 
rtoes -8.104929 
lfemur -3.530829 6.597700 -24.860305 
ltibia 45.488251 
lfoot -3.758999 7.375644 
ltoes -13.488053 
32
root -8.202772 17.018542 -21.617718 6.388903 -3.495133 8.135131
lowerback -11.689078 -3.395464 -6.077200 
upperback 1.678843 -3.623772 -0.109402 
thorax 8.758887 -2.045805 2.602636 
lowerneck -0.575922 -9.153405 -8.153990 
upperneck 8.701743 -12.710243 9.104428 
head 3.793470 -6.212365 3.528011 
rclavicle 0.000000 0.000000 
rhumerus -50.641359 -37.946161 -62.965067 
rradius 29.432919 
rwrist 53.101235 
rhand -24.849909 -1.791458 
rfingers 0.000000 
rthumb 1.656499 -31.764733 
lclavicle 0.000000 0.000000 
lhumerus -25.699774 26.602922 80.467981 
lradius 34.431609 
lwrist -41.180668 
lhand -11.062799 3.217020 
lfingers 0.000000 
lthumb 14.959986 32.656700 
rfemur -25.261319 -0.779255 18.620051 
rtibia 25.764066 
rfoot -17.830497 -11.390071 
rtoes -8.466114 
lfemur -4.393266 6.783106 -24.499281 
ltibia 47.042953 
lfoot -2.892484 7.891948 
ltoes -12.579592 
33
root -8.225186 17.022762 -21.534307 6.432046 -3.486799 7.868926
lowerback -11.714996 -3.374060 -5.838764 
upperback 1.639506 -3.639212 -0.007799 
thorax 8.722271 -2.043434 2.574981 
lowerneck -0.653308 -9.173316 -8.224337 
upperneck 8.751761 -12.741020 9.180273 
head 3.833392 -6.224013 3.554374 
rclavicle 0.000000 0.000000 
rhumerus -50.398796 -37.656223 -63.296386 
rradius 29.652174 
rwrist 52.089524 
rhand -24.619322 -1.792376 
rfingers 0.000000 
rthumb 1.879199 -31.763873 
lclavicle 0.000000 0.000000 
lhumerus -26.121570 26.648655 80.409952 
lradius 34.260078 
lwrist -41.129758 
lhand -11.048530 3.469332 
lfingers 0.000000 
lthumb 14.973680 32.908024 
rfemur -24.854102 -0.692158 18.973194 
rtibia 25.617341 
rfoot -18.121168 -11.357564 
rtoes -8.572713 
lfemur -5.328045 6.914965 -24.068246 
ltibia 48.595717 
lfoot -1.965253 8.249182 
ltoes -11.967395 
34
root -8.246077 17.028277 -21.453829 6.474109 -3.546105 7.571269
lowerback -11.716019 -3.371606 -5.489128 
upperback 1.617967 -3.693265 0.046683 
thorax 8.683076 -2.053336 2.427443 
lowerneck -0.720695 -9.141466 -8.129320 
upperneck 8.723609 -12.700706 9.231304 
head 3.829530 -6.197921 3.555352 
rclavicle 0.000000 0.000000 
rhumerus -50.081233 -37.370408 -63.723375 
rradius 29.753176 
rwrist 51.956514 
rhand -24.556005 -1.857995 
rfingers 0.000000 
rthumb 1.940386 -31.828905 
lclavicle 0.000000 0.000000 
lhumerus -26.518619 26.700859 80.198922 
lradius 34.071811 
lwrist -41.238694 
lhand -10.827491 3.443999 
lfingers 0.000000 
lthumb 15.186691 32.866708 
rfemur -24.478555 -0.949302 19.436259 
rtibia 25.464436 
rfoot -18.192554 -10.982784 
rtoes -8.758157 
lfemur -6.302867 6.868332 -23.664816 
ltibia 50.157174 
lfoot -1.422174 8.436606 
ltoes -10.173766 
35
root -8.260533 17.028094 -21.376674 6.478371 -3.554201 7.392405
lowerback -11.660081 -3.356058 -5.214832 
upperback 1.604203 -3.719282 0.072027 
thorax 8.620113 -2.052427 2.299231 
lowerneck -0.713768 -9.174949 -8.009287 
upperneck 8.585963 -12.743455 9.245040 
head 3.783932 -6.217340 3.541452 
rclavicle 0.000000 0.000000 
rhumerus -49.739789 -37.112998 -64.099013 
rradius 29.854466 
rwrist 51.428416 
rhand -24.448729 -1.756247 
rfingers 0.000000 
rthumb 2.043987 -31.726209 
lclavicle 0.000000 0.000000 
lhumerus -26.874058 26.824948 80.035724 
lradius 33.778891 
lwrist -41.785460 
lhand -10.894871 3.283768 
lfingers 0.000000 
lthumb 15.121806 32.711364 
rfemur -24.095352 -1.310621 19.750147 
rtibia 25.321292 
rfoot -18.255578 -10.575437 
rtoes -9.085203 
lfemur -7.250671 7.111819 -23.367151 
ltibia 51.669712 
lfoot -0.906251 8.381868 
ltoes -10.348116 
36
root -8.276133 17.029641 -21.299175 6.490008 -3.566869 7.133552
lowerback -11.615143 -3.325402 -4.910698 
upperback 1.595640 -3.732223 0.141911 
thorax 8.569028 -2.045592 2.203754 
lowerneck -0.834220 -9.221386 -7.956317 
upperneck 8.591556 -12.803977 9.262433 
head 3.808674 -6.241554 3.528351 
rclavicle 0.000000 0.000000 
rhumerus -49.462863 -36.894321 -64.404310 
rradius 29.972684 
rwrist 51.021273 
rhand -24.586951 -1.762872 
rfingers 0.000000 
rthumb 1.910469 -31.734029 
lclavicle 0.000000 0.000000 
lhumerus -27.192212 26.767817 80.032878 
lradius 33.556922 
lwrist -42.209118 
lhand -10.840420 3.555489 
lfingers 0.000000 
lthumb 15.174249 32.979118 
rfemur -23.688346 -1.181378 20.061904 
rtibia 25.175780 
rfoot -18.536402 -10.570359 
rtoes -9.207747 
lfemur -8.209123 7.198939 -23.009385 
ltibia 53.174432 
lfoot -1.037508 8.409303 
ltoes -11.261520 
